<svg xmlns="http://www.w3.org/2000/svg" viewBox="0 0 1061.08 430.65"><defs><style>.cls-1{fill:none;}.cls-2{fill:#fff;}</style></defs><title>Principal BrancoAssinaturas</title><g id="Layer_2" data-name="Layer 2"><g id="Layer_3" data-name="Layer 3"><rect class="cls-1" width="1061.08" height="430.65"/><path class="cls-2" d="M155.41,284.65V144.28H175.7l5.84,16.4A39.83,39.83,0,0,1,192,152.9,90.66,90.66,0,0,1,205,147.2a81.48,81.48,0,0,1,13.9-3.48,86.8,86.8,0,0,1,13.2-1.11,76.51,76.51,0,0,1,21.4,3.06A48.44,48.44,0,0,1,272.3,156q8.19,7.23,12.78,19.31t3.48,30.44v78.94h-27.8v-80q.27-14.17-2.92-24a47.22,47.22,0,0,0-8.34-16,33,33,0,0,0-11.53-9,39,39,0,0,0-12.79-3.48,57.25,57.25,0,0,0-11.39,1.25,77.59,77.59,0,0,0-12,3.48,57.74,57.74,0,0,0-11,5.56,35.12,35.12,0,0,0-8.47,7.5v114.8Z"/><path class="cls-2" d="M392.56,288a84.49,84.49,0,0,1-28.07-4.87A77.73,77.73,0,0,1,339.61,269,71.63,71.63,0,0,1,321.82,246Q315,232.41,315,214.6q0-18.34,6.95-32A70.12,70.12,0,0,1,339.89,160a74.62,74.62,0,0,1,24.88-13.49,90.81,90.81,0,0,1,27.79-4.44,91.82,91.82,0,0,1,28.08,4.44A74.67,74.67,0,0,1,445.51,160a70.12,70.12,0,0,1,17.93,22.65q6.94,13.62,6.95,32,0,17.81-6.81,31.41A71.63,71.63,0,0,1,445.79,269a77.44,77.44,0,0,1-25,14.17A85.74,85.74,0,0,1,392.56,288Zm0-140.65q-12.24,0-21,6.39a53.29,53.29,0,0,0-14.46,16,76.46,76.46,0,0,0-8.48,20.85,89,89,0,0,0-2.78,21.26,95.2,95.2,0,0,0,2.92,25.44A83.86,83.86,0,0,0,358,259.91,51.39,51.39,0,0,0,372.69,276a33.83,33.83,0,0,0,19.87,6.12A32.8,32.8,0,0,0,412,276a55.47,55.47,0,0,0,14.87-16.12,78.84,78.84,0,0,0,9.45-22.65,103.48,103.48,0,0,0,3.2-25.44,93.86,93.86,0,0,0-2.64-21.26,76.5,76.5,0,0,0-8.2-20.85,51,51,0,0,0-14.46-16Q405.35,147.34,392.56,147.34Z"/><path class="cls-2" d="M477.62,146H504l56.15,122.86L616.88,146h7.5l-63.1,138.7H540.72Z"/><path class="cls-2" d="M648,284.65V89.24h27.52V220.72L750,146h10.56l-51.42,51.7,67,87H748.35l-55-71.16-17.79,17.79v53.37Z"/><path class="cls-2" d="M793.37,174.58q10-14.73,23.76-21.68t32.94-7q28.35,0,42,12.37t13.62,42.39v83.94H884.54l-4.17-7.23q-5.28,3.9-15.29,7.79t-24.46,3.89a111.25,111.25,0,0,1-22-2.5,42.46,42.46,0,0,1-30.57-24.19,41.8,41.8,0,0,1-3.76-18.06,46.68,46.68,0,0,1,3.89-18.07,42.61,42.61,0,0,1,11.26-15.15,41.81,41.81,0,0,1,18.9-9,166.77,166.77,0,0,1,18.35-3.48q9.45-1.25,17.79-2.78a98.14,98.14,0,0,0,14.73-3.75q6.39-2.22,8.89-6.39-1.39-15.85-9.17-24t-23.63-8.2a54.44,54.44,0,0,0-15.42,2.09,50.1,50.1,0,0,0-12.79,5.7,54.51,54.51,0,0,0-10,8.06,59.73,59.73,0,0,0-7.37,9.17Zm85,94.78V193.48a67.57,67.57,0,0,1-17.09,7.78q-9.87,3.06-24.05,7a34.57,34.57,0,0,0-15.84,9.17,37.78,37.78,0,0,0-8.76,14.46,42.51,42.51,0,0,0-1.94,16.81,41.25,41.25,0,0,0,4.45,16,34.86,34.86,0,0,0,10.28,12.09,27,27,0,0,0,15.71,5.14,82.49,82.49,0,0,0,20-2.36A36.85,36.85,0,0,0,878.42,269.36Z"/><rect class="cls-1" width="1061.08" height="430.65"/></g></g></svg>